<svg xmlns="http://www.w3.org/2000/svg" xmlns:xlink="http://www.w3.org/1999/xlink" width="500" zoomAndPan="magnify" viewBox="0 0 375 374.999991" height="500" preserveAspectRatio="xMidYMid meet" version="1.0"><defs><g/><clipPath id="0a1a4a8c73"><path d="M 98 108 L 268 108 L 268 279 L 98 279 Z M 98 108 " clip-rule="nonzero"/></clipPath><clipPath id="9c7534eb75"><path d="M 310.242188 104.09375 L 313.765625 277.308594 L 55.070312 282.574219 L 51.542969 109.359375 Z M 310.242188 104.09375 " clip-rule="nonzero"/></clipPath><clipPath id="a133a73e2b"><path d="M 310.242188 104.09375 L 313.765625 277.308594 L 55.070312 282.574219 L 51.542969 109.359375 Z M 310.242188 104.09375 " clip-rule="nonzero"/></clipPath><clipPath id="4f2a0e87b9"><path d="M 53 105 L 312 105 L 312 282 L 53 282 Z M 53 105 " clip-rule="nonzero"/></clipPath><clipPath id="e615184eca"><path d="M 310.242188 104.09375 L 313.765625 277.308594 L 55.070312 282.574219 L 51.542969 109.359375 Z M 310.242188 104.09375 " clip-rule="nonzero"/></clipPath><clipPath id="500f13a5a6"><path d="M 310.242188 104.09375 L 313.765625 277.308594 L 55.070312 282.574219 L 51.542969 109.359375 Z M 310.242188 104.09375 " clip-rule="nonzero"/></clipPath></defs><g clip-path="url(#0a1a4a8c73)"><g clip-path="url(#9c7534eb75)"><g clip-path="url(#a133a73e2b)"><path fill="#da0a93" d="M 267.257812 191.746094 L 184.4375 278.011719 L 98.175781 195.1875 L 180.996094 108.925781 Z M 267.257812 191.746094 " fill-opacity="1" fill-rule="evenodd"/></g></g></g><g clip-path="url(#4f2a0e87b9)"><g clip-path="url(#e615184eca)"><g clip-path="url(#500f13a5a6)"><path fill="#ff914d" d="M 185.777344 235.695312 L 227.1875 192.5625 L 184.054688 151.152344 L 223.363281 110.210938 L 307.382812 190.929688 C 307.382812 190.929688 236.261719 265.007812 226.664062 275.003906 Z M 181.898438 153.34375 L 142.59375 194.285156 L 183.535156 233.589844 L 222.839844 192.652344 Z M 179.65625 151.242188 L 138.246094 194.375 L 181.378906 235.785156 L 142.070312 276.722656 L 58.050781 196.003906 L 138.769531 111.933594 Z M 181.8125 148.996094 L 138.679688 107.585938 L 53.703125 196.09375 L 142.210938 281.070312 L 183.621094 237.9375 L 226.753906 279.347656 L 311.730469 190.84375 L 223.222656 105.867188 Z M 181.8125 148.996094 " fill-opacity="1" fill-rule="evenodd"/></g></g></g><g fill="#ffffff" fill-opacity="1"><g transform="translate(-9.544373, 243.941028)"><g><path d="M 65.140625 1.71875 C 54.160156 1.71875 44.484375 -0.5625 36.109375 -5.125 C 27.742188 -9.695312 21.195312 -16.5625 16.46875 -25.71875 C 11.738281 -34.875 9.375 -46.164062 9.375 -59.59375 C 9.375 -73.019531 11.738281 -84.3125 16.46875 -93.46875 C 21.195312 -102.625 27.742188 -109.484375 36.109375 -114.046875 C 44.484375 -118.609375 54.160156 -120.890625 65.140625 -120.890625 C 76.597656 -120.890625 86.335938 -118.644531 94.359375 -114.15625 C 102.378906 -109.675781 108.097656 -102.847656 111.515625 -93.671875 L 94.3125 -83.15625 L 92.28125 -83.234375 C 89.726562 -89.429688 86.265625 -93.875 81.890625 -96.5625 C 77.515625 -99.25 71.929688 -100.59375 65.140625 -100.59375 C 55.242188 -100.59375 47.523438 -97.316406 41.984375 -90.765625 C 36.441406 -84.222656 33.671875 -73.832031 33.671875 -59.59375 C 33.671875 -45.40625 36.441406 -35.035156 41.984375 -28.484375 C 47.523438 -21.941406 55.242188 -18.671875 65.140625 -18.671875 C 80.628906 -18.671875 90.109375 -26.195312 93.578125 -41.25 L 95.625 -41.25 L 112.984375 -32.203125 C 109.722656 -20.898438 104.148438 -12.421875 96.265625 -6.765625 C 88.390625 -1.109375 78.015625 1.71875 65.140625 1.71875 Z M 65.140625 1.71875 "/></g></g></g><g fill="#ffffff" fill-opacity="1"><g transform="translate(107.357714, 243.941028)"><g/></g></g><g fill="#ffffff" fill-opacity="1"><g transform="translate(146.727855, 243.941028)"><g/></g></g><g fill="#ffffff" fill-opacity="1"><g transform="translate(186.097996, 243.941028)"><g/></g></g><g fill="#ffffff" fill-opacity="1"><g transform="translate(225.468137, 243.941028)"><g/></g></g><g fill="#ffffff" fill-opacity="1"><g transform="translate(264.842981, 243.941028)"><g><path d="M 15.484375 0 L 15.484375 -119.1875 L 39.046875 -119.1875 L 39.046875 -70.515625 L 41.65625 -70.515625 L 81.4375 -119.1875 L 105.5625 -119.1875 L 105.5625 -117.140625 L 61.703125 -62.9375 L 110.140625 -2.03125 L 110.140625 0 L 83.484375 0 L 41.65625 -51.4375 L 39.046875 -51.4375 L 39.046875 0 Z M 15.484375 0 "/></g></g></g><g fill="#ffffff" fill-opacity="1"><g transform="translate(110.831988, 242.170878)"><g><path d="M 28.328125 1.296875 C 22.179688 1.296875 17.488281 -0.359375 14.25 -3.671875 C 11.019531 -6.992188 9.40625 -12.035156 9.40625 -18.796875 L 9.40625 -95.609375 L 26.53125 -95.609375 L 26.53125 -19.484375 C 26.53125 -15.316406 28.257812 -13.234375 31.71875 -13.234375 C 32.707031 -13.234375 33.757812 -13.398438 34.875 -13.734375 L 35.75 -13.484375 L 37.296875 -0.3125 C 36.347656 0.1875 35.085938 0.578125 33.515625 0.859375 C 31.953125 1.148438 30.222656 1.296875 28.328125 1.296875 Z M 28.328125 1.296875 "/></g></g></g><g fill="#ffffff" fill-opacity="1"><g transform="translate(150.040096, 242.170878)"><g><path d="M 26.59375 1.296875 C 22.21875 1.296875 18.421875 0.492188 15.203125 -1.109375 C 11.992188 -2.722656 9.519531 -5.082031 7.78125 -8.1875 C 6.050781 -11.300781 5.1875 -15.046875 5.1875 -19.421875 C 5.1875 -23.460938 6.050781 -26.851562 7.78125 -29.59375 C 9.519531 -32.332031 12.203125 -34.578125 15.828125 -36.328125 C 19.460938 -38.085938 24.207031 -39.441406 30.0625 -40.390625 C 34.132812 -41.046875 37.234375 -41.765625 39.359375 -42.546875 C 41.484375 -43.328125 42.914062 -44.210938 43.65625 -45.203125 C 44.40625 -46.191406 44.78125 -47.453125 44.78125 -48.984375 C 44.78125 -51.171875 44.015625 -52.835938 42.484375 -53.984375 C 40.960938 -55.140625 38.425781 -55.71875 34.875 -55.71875 C 31.082031 -55.71875 27.472656 -54.875 24.046875 -53.1875 C 20.628906 -51.5 17.664062 -49.269531 15.15625 -46.5 L 13.921875 -46.5 L 6.734375 -57.328125 C 10.203125 -61.160156 14.429688 -64.148438 19.421875 -66.296875 C 24.410156 -68.441406 29.851562 -69.515625 35.75 -69.515625 C 44.78125 -69.515625 51.3125 -67.597656 55.34375 -63.765625 C 59.382812 -59.929688 61.40625 -54.488281 61.40625 -47.4375 L 61.40625 -17.8125 C 61.40625 -14.757812 62.75 -13.234375 65.4375 -13.234375 C 66.46875 -13.234375 67.476562 -13.421875 68.46875 -13.796875 L 69.328125 -13.546875 L 70.5625 -1.609375 C 69.613281 -0.992188 68.289062 -0.488281 66.59375 -0.09375 C 64.90625 0.300781 63.054688 0.5 61.046875 0.5 C 56.960938 0.5 53.773438 -0.28125 51.484375 -1.84375 C 49.191406 -3.414062 47.550781 -5.875 46.5625 -9.21875 L 45.265625 -9.34375 C 41.929688 -2.25 35.707031 1.296875 26.59375 1.296875 Z M 32.03125 -11.5 C 35.988281 -11.5 39.148438 -12.828125 41.515625 -15.484375 C 43.890625 -18.148438 45.078125 -21.851562 45.078125 -26.59375 L 45.078125 -33.515625 L 43.90625 -33.765625 C 42.875 -32.941406 41.523438 -32.25 39.859375 -31.6875 C 38.191406 -31.132812 35.789062 -30.59375 32.65625 -30.0625 C 28.945312 -29.4375 26.273438 -28.367188 24.640625 -26.859375 C 23.015625 -25.359375 22.203125 -23.226562 22.203125 -20.46875 C 22.203125 -17.539062 23.066406 -15.3125 24.796875 -13.78125 C 26.523438 -12.257812 28.9375 -11.5 32.03125 -11.5 Z M 32.03125 -11.5 "/></g></g></g><g fill="#ffffff" fill-opacity="1"><g transform="translate(221.962866, 242.170878)"><g><path d="M 9.828125 0 L 9.828125 -68.21875 L 26.46875 -68.21875 L 26.46875 -58.078125 L 27.765625 -57.828125 C 29.410156 -61.617188 31.570312 -64.398438 34.25 -66.171875 C 36.9375 -67.941406 40.195312 -68.828125 44.03125 -68.828125 C 47.90625 -68.828125 50.851562 -68.171875 52.875 -66.859375 L 49.96875 -52.078125 L 48.671875 -51.828125 C 47.554688 -52.273438 46.484375 -52.601562 45.453125 -52.8125 C 44.421875 -53.019531 43.164062 -53.125 41.6875 -53.125 C 36.90625 -53.125 33.253906 -51.441406 30.734375 -48.078125 C 28.222656 -44.722656 26.96875 -39.332031 26.96875 -31.90625 L 26.96875 0 Z M 9.828125 0 "/></g></g></g></svg>