<?xml version="1.0" standalone="no"?>
<!DOCTYPE svg PUBLIC "-//W3C//DTD SVG 20010904//EN"
 "http://www.w3.org/TR/2001/REC-SVG-20010904/DTD/svg10.dtd">
<svg version="1.0" xmlns="http://www.w3.org/2000/svg"
 width="480.000000pt" height="480.000000pt" viewBox="0 0 480.000000 480.000000"
 preserveAspectRatio="xMidYMid meet">

<g transform="translate(0.000000,480.000000) scale(0.100000,-0.100000)"
fill="#000000" stroke="none">
<path d="M2260 4753 c-81 -22 -146 -71 -245 -183 -170 -191 -172 -199 -159
-549 4 -130 8 -254 8 -276 1 -27 8 -47 24 -64 26 -29 12 -43 -17 -17 -25 23
-61 21 -61 -3 0 -10 7 -21 15 -25 11 -4 14 -20 13 -68 -2 -48 3 -74 19 -108
42 -86 58 -103 86 -96 9 2 17 -1 17 -7 1 -21 38 -57 58 -57 15 0 25 -17 47
-77 15 -43 37 -98 48 -123 14 -31 23 -78 28 -150 4 -58 7 -105 8 -106 1 0 11
-13 24 -28 l23 -26 -1 26 c0 49 25 51 105 10 80 -42 129 -50 285 -51 92 0 104
2 148 28 47 28 68 49 25 25 -36 -19 -225 -16 -268 5 -48 24 -98 71 -150 142
-59 79 -74 95 -102 109 -36 18 -67 72 -66 116 0 27 -13 67 -42 125 -33 67 -44
103 -52 168 -12 104 -5 149 33 208 43 66 62 72 213 73 94 1 130 4 133 13 9 27
-75 40 -212 34 -27 -2 -51 2 -53 8 -2 7 -12 7 -29 0 -14 -5 -26 -8 -27 -7 0 2
-16 20 -35 40 -59 64 -59 178 0 237 31 31 135 62 167 50 28 -11 67 4 84 31 7
11 21 20 32 20 10 0 34 12 53 26 19 14 40 23 48 20 8 -3 17 -1 20 4 8 12 102
7 116 -7 6 -6 17 -9 24 -7 6 3 18 -2 25 -11 15 -18 47 -20 53 -2 3 8 14 4 38
-13 29 -21 45 -25 103 -25 79 0 92 -10 125 -104 10 -29 25 -61 33 -71 19 -21
29 -61 33 -128 2 -29 6 -56 9 -59 3 -4 6 -46 6 -95 0 -52 4 -88 10 -88 6 0 10
17 10 38 0 20 5 53 10 72 7 24 7 78 0 170 -5 74 -12 171 -15 215 -6 107 -20
181 -42 232 -23 55 -241 303 -265 303 -10 0 -60 16 -111 36 -137 54 -310 74
-407 47z m-370 -1144 c0 -11 7 -19 18 -19 13 0 14 -2 4 -9 -7 -4 -16 -33 -19
-65 -5 -45 -2 -60 12 -76 10 -11 22 -17 26 -14 5 3 9 1 9 -5 0 -5 3 -16 6 -25
3 -9 1 -16 -4 -16 -6 0 -13 8 -17 18 -3 11 -16 24 -30 30 -38 18 -61 143 -34
193 12 23 29 16 29 -12z m60 -139 c0 -5 -4 -10 -10 -10 -5 0 -10 5 -10 10 0 6
5 10 10 10 6 0 10 -4 10 -10z"/>
<path d="M2915 3863 c-131 -9 -185 -16 -202 -29 -16 -12 -16 -15 -3 -24 9 -6
32 -8 55 -4 120 19 171 21 197 8 32 -16 44 -4 26 25 -15 25 -22 27 -73 24z"/>
<path d="M2808 3761 c-31 -3 -58 -8 -60 -11 -2 -3 -10 -14 -18 -24 -11 -14
-11 -18 -2 -12 14 8 44 -23 36 -36 -3 -5 6 -8 20 -8 31 0 68 34 60 55 -7 18 0
19 27 5 10 -6 19 -17 19 -24 0 -20 27 -28 34 -10 3 8 12 14 20 14 24 0 -24 46
-54 52 -14 2 -51 2 -82 -1z"/>
<path d="M3140 3751 c0 -6 5 -13 10 -16 6 -3 10 1 10 9 0 9 -4 16 -10 16 -5 0
-10 -4 -10 -9z"/>
<path d="M2203 3709 c-18 -12 -33 -25 -33 -31 0 -5 -4 -6 -10 -3 -18 11 -10
-22 9 -39 16 -14 29 -16 62 -11 39 7 41 9 25 21 -18 13 -16 44 3 44 8 0 24
-37 22 -52 -2 -12 25 -10 54 4 23 10 30 25 26 56 -3 19 33 -2 53 -30 11 -15
16 -17 16 -8 -1 16 -30 60 -30 44 0 -5 -4 -3 -9 5 -6 9 -33 15 -83 17 -61 3
-78 0 -105 -17z"/>
<path d="M2438 3407 c-12 -29 -9 -46 12 -67 28 -28 48 -25 23 3 -12 12 -23 36
-25 52 -2 24 -4 26 -10 12z"/>
<path d="M2660 3380 c0 -5 11 -10 25 -10 14 0 25 -4 25 -10 0 -5 5 -10 12 -10
6 0 3 9 -7 20 -19 21 -55 27 -55 10z"/>
<path d="M2535 3370 c-3 -5 2 -10 12 -10 10 0 29 -3 43 -7 22 -6 24 -5 11 10
-15 19 -56 23 -66 7z"/>
<path d="M2846 3245 c4 -8 13 -15 21 -15 13 0 13 3 3 15 -7 8 -16 15 -21 15
-5 0 -6 -7 -3 -15z"/>
<path d="M2760 3210 c0 -5 -8 -10 -17 -10 -10 0 -25 -5 -33 -11 -11 -7 -5 -9
25 -7 28 2 39 -1 37 -10 -2 -10 2 -10 20 0 26 15 48 34 48 42 0 3 -18 6 -40 6
-22 0 -40 -4 -40 -10z"/>
<path d="M2342 3198 c-19 -19 -14 -30 9 -23 13 5 19 3 15 -3 -3 -5 8 -15 24
-22 16 -7 41 -27 55 -46 34 -44 103 -81 119 -63 7 8 7 10 0 6 -13 -7 -71 50
-61 59 4 4 -1 13 -11 20 -9 7 -14 15 -11 19 6 6 70 12 138 14 43 1 35 12 -10
13 -19 1 -40 8 -47 17 -8 9 -11 10 -7 4 3 -7 2 -13 -4 -13 -5 0 -16 -3 -25 -6
-11 -4 -16 -1 -16 10 0 18 -4 18 -72 7 -31 -5 -46 -4 -45 3 3 15 -36 19 -51 4z"/>
<path d="M2668 3173 c7 -3 16 -2 19 1 4 3 -2 6 -13 5 -11 0 -14 -3 -6 -6z"/>
<path d="M2766 3103 c-6 -14 -5 -15 5 -6 7 7 10 15 7 18 -3 3 -9 -2 -12 -12z"/>
<path d="M2583 3013 c15 -2 39 -2 55 0 15 2 2 4 -28 4 -30 0 -43 -2 -27 -4z"/>
<path d="M2071 2810 c-96 -110 -138 -132 -568 -294 -209 -79 -400 -161 -469
-201 -46 -27 -64 -61 -84 -160 -6 -33 -47 -207 -91 -387 -89 -368 -145 -626
-160 -738 -18 -140 -29 -514 -23 -772 l7 -258 1353 0 1354 0 5 23 c2 12 14
101 25 197 45 382 78 559 101 544 19 -11 96 -188 129 -295 18 -57 39 -117 48
-134 8 -16 21 -66 27 -110 7 -44 18 -113 26 -152 l13 -73 333 0 c182 0 334 4
337 9 3 4 1 62 -3 127 -8 104 -13 129 -46 204 -20 47 -70 179 -111 294 -59
164 -83 251 -115 405 -22 108 -51 232 -64 276 -35 118 -90 353 -115 495 -65
369 -79 427 -120 473 -29 33 -46 43 -210 120 -52 25 -171 81 -264 126 -93 44
-198 90 -235 101 -36 11 -81 29 -98 40 -18 11 -33 18 -33 16 0 -1 8 -27 18
-57 15 -41 21 -99 26 -246 3 -106 9 -200 12 -208 7 -17 -31 -22 -41 -5 -16 25
-25 5 -25 -55 0 -178 -70 -790 -102 -897 -12 -41 -13 -36 -16 92 -1 74 -6 144
-11 155 -5 11 -19 90 -31 175 -28 200 -65 360 -100 431 -24 50 -26 63 -19 105
10 61 28 114 40 114 21 0 -6 28 -44 46 -30 15 -56 19 -90 16 -41 -3 -52 -10
-87 -49 -25 -29 -37 -50 -32 -57 5 -6 15 -27 22 -46 7 -19 20 -43 28 -52 13
-15 12 -26 -3 -88 -18 -72 -18 -192 0 -580 l4 -105 -20 75 c-120 451 -236 823
-269 865 -4 6 -24 51 -45 100 -20 50 -45 104 -55 122 -37 63 -63 182 -57 261
3 39 4 72 3 72 -2 0 -27 -27 -55 -60z m-651 -2465 c0 -19 -4 -35 -10 -35 -11
0 -14 53 -3 63 11 12 13 8 13 -28z"/>
<path d="M2520 2500 c0 -5 5 -10 11 -10 5 0 7 5 4 10 -3 6 -8 10 -11 10 -2 0
-4 -4 -4 -10z"/>
<path d="M2720 2468 c-19 -22 -41 -46 -49 -54 -7 -8 -11 -18 -7 -21 3 -4 7 -4
9 -2 2 2 22 28 46 57 51 62 52 78 1 20z"/>
<path d="M2802 2273 c2 -13 14 -18 42 -19 l39 -1 -34 18 c-43 23 -51 23 -47 2z"/>
</g>
</svg>
